# xmcd
#
# Track frame offsets: 
#        150
#        13356
#        21679
#        31976
#        43734
#        57807
#        66106
#        77035
#        88507
#        101983
#        112132
#        124473
#        132569
#        145219
#        154195
#        167900
#        177479
#        189087
#        198686
#        207452
#
# Disc length: 2939 seconds
#
# Revision: 0
# Processed by: cddbd v1.5.2PL0 Copyright (c) Steve Scherf et al.
# Submitted via: ExactAudioCopy v1.0b1
#
DISCID=370b7914
DTITLE=Various Artist - Train Songs - Train Time CD10
DYEAR=2011
DGENRE=Country
TTITLE0=Jimmy Jackson's Rockin' Skiffle - California Zephyr (1957)
TTITLE1=Johnny Cash - Wreck Of The Old '97 (1957)
TTITLE2=The Miller Brothers - Loco Cghoo Choo (1955)
TTITLE3=Jody Reynolds - Long Black Train (1959)
TTITLE4=Tennessee Ernie Ford - Mule Train (1949)
TTITLE5=Hank Davis - Woman train (1959)
TTITLE6=Wade Cagle - Groovy Train (1960)
TTITLE7=Johnny Tyler - Freight Train Boogie (1947)
TTITLE8=Gene Simmons - Going Back To Memphis (1960)
TTITLE9=Doug Corby - Heartbreak Train (1959)
TTITLE10=Johnny Nelms - Mister Freight Train (1958)
TTITLE11=Tommy Sena - Choo Choo Train (1960)
TTITLE12=Joe Lewis - Railroad Engineer (1945)
TTITLE13=Eddie Carter - Railroad Stomp (1959)
TTITLE14=Hank Snow - The Engineer's Child (1951)
TTITLE15=Bob Cort's Skiffle Group - Eight More Miles To Louisville (19
TTITLE15=57)
TTITLE16=Jack Kingston - Freight Train Blues (1958)
TTITLE17=Louis and Frosty - Train Time (1955)
TTITLE18=Bill Clifton - I'm Rollin' On (1959)
TTITLE19=Tennessee - Intercity
EXTD=
EXTT0=
EXTT1=
EXTT2=
EXTT3=
EXTT4=
EXTT5=
EXTT6=
EXTT7=
EXTT8=
EXTT9=
EXTT10=
EXTT11=
EXTT12=
EXTT13=
EXTT14=
EXTT15=
EXTT16=
EXTT17=
EXTT18=
EXTT19=
PLAYORDER=
